<?xml version="1.0" standalone="no"?>
<!DOCTYPE svg PUBLIC "-//W3C//DTD SVG 20010904//EN"
 "http://www.w3.org/TR/2001/REC-SVG-20010904/DTD/svg10.dtd">
<svg version="1.0" xmlns="http://www.w3.org/2000/svg"
 width="382.000000pt" height="134.000000pt" viewBox="0 0 382.000000 134.000000"
 preserveAspectRatio="xMidYMid meet">

<g transform="translate(0.000000,134.000000) scale(0.100000,-0.100000)"
fill="#000000" stroke="none">
<path d="M1799 1143 l-41 -37 41 -38 c52 -49 79 -49 129 -1 l38 36 -38 39
c-48 49 -76 49 -129 1z m46 -33 c0 -41 -10 -47 -29 -17 -8 12 -5 21 8 36 11
12 20 21 20 21 1 0 1 -18 1 -40z"/>
<path d="M1637 1116 c-5 -12 -13 -13 -37 -6 -41 12 -350 10 -373 -2 -25 -13
-16 -30 18 -34 15 -2 32 -9 36 -16 5 -7 9 -54 9 -105 0 -84 -2 -93 -23 -110
l-24 -18 24 -18 c22 -17 23 -24 23 -125 0 -115 -6 -132 -47 -132 -25 0 -31
-23 -10 -37 6 -4 67 -8 135 -9 96 -1 126 2 137 13 23 22 18 33 -13 33 -46 0
-52 15 -52 132 l0 108 33 0 c42 0 57 -15 57 -57 0 -22 5 -33 14 -33 22 0 47
30 45 54 -1 11 1 29 6 39 4 9 4 29 -1 45 -4 15 -6 33 -5 39 4 24 -20 53 -42
53 -19 0 -22 -5 -22 -37 0 -32 -4 -37 -30 -45 -51 -14 -55 -7 -55 97 l0 96 37
15 c47 20 96 11 123 -23 23 -29 44 -98 36 -119 -3 -7 -1 -16 5 -19 16 -10 48
5 54 25 11 34 14 174 4 192 -12 22 -55 24 -62 4z m-287 -306 c0 -91 -5 -172
-10 -180 -7 -10 -10 14 -10 77 0 64 -4 96 -13 105 -12 10 -12 15 0 26 8 9 13
39 13 90 0 53 3 72 10 62 5 -8 10 -89 10 -180z"/>
<path d="M3303 1120 c-107 -22 -181 -91 -209 -198 -9 -37 -23 -74 -30 -82 -10
-12 -10 -19 2 -34 7 -11 19 -46 25 -78 16 -82 63 -156 123 -193 45 -27 57 -30
135 -30 47 0 97 2 111 3 14 1 41 0 61 -4 40 -7 79 9 79 31 0 7 -10 15 -22 17
-22 3 -23 8 -23 83 0 75 1 80 23 83 24 4 29 24 10 40 -7 5 -56 10 -108 10 -52
0 -101 -5 -107 -10 -22 -17 -15 -38 12 -38 23 0 25 -3 25 -49 0 -94 -32 -132
-95 -111 -42 14 -55 48 -55 145 0 57 4 78 19 96 19 23 19 24 0 48 -23 29 -26
116 -4 167 25 60 108 78 173 38 32 -21 28 -53 -8 -67 -34 -13 -34 -27 -2 -42
13 -6 22 -19 22 -32 0 -29 23 -30 50 -3 11 11 26 20 33 20 35 1 40 16 22 69
-21 63 -70 106 -137 121 -55 11 -66 11 -125 0z m-139 -182 c-20 -95 -15 -230
12 -303 5 -14 4 -17 -3 -10 -17 16 -53 152 -54 200 0 42 41 175 55 175 1 0 -3
-28 -10 -62z m306 -288 c0 -21 -4 -42 -10 -45 -6 -4 -10 13 -10 45 0 32 4 49
10 45 6 -3 10 -24 10 -45z"/>
<path d="M340 1101 c-34 -64 36 -246 150 -395 l49 -64 -19 -25 c-28 -36 -25
-48 8 -31 15 7 33 14 40 14 15 0 15 5 1 28 -9 15 -1 33 46 106 76 116 107 205
103 294 l-3 67 -40 -2 c-22 -1 -48 -3 -59 -3 -10 -1 -16 -4 -12 -7 3 -3 -18
-22 -47 -42 -28 -20 -57 -48 -64 -61 -11 -22 -13 -23 -13 -5 0 32 -47 122 -69
134 -30 17 -59 13 -71 -8z"/>
<path d="M2164 1095 c-9 -14 -25 -25 -35 -25 -19 0 -41 -35 -53 -82 -4 -18
-13 -28 -25 -28 -10 0 -26 -9 -36 -20 -22 -24 -14 -50 14 -43 41 11 54 -95 17
-136 -14 -15 -13 -19 4 -34 16 -13 20 -29 20 -73 0 -69 25 -115 77 -139 52
-25 131 -17 177 19 57 43 60 111 5 111 -20 0 -25 -6 -27 -33 -4 -37 -39 -66
-66 -56 -29 11 -36 49 -36 200 l0 144 53 0 c55 0 77 12 77 42 0 15 -9 18 -65
18 l-65 0 0 80 c0 84 -8 97 -36 55z m-36 -325 c0 -124 -11 -167 -22 -90 -4 30
-7 62 -6 70 0 8 4 56 7 105 5 80 7 85 14 50 4 -22 8 -83 7 -135z"/>
<path d="M2397 1108 c-22 -12 -23 -42 -1 -34 9 4 27 -1 40 -9 22 -14 24 -22
24 -106 0 -82 -2 -92 -24 -112 l-24 -23 24 -21 c22 -20 24 -28 24 -125 0 -113
-6 -128 -52 -128 -32 0 -36 -10 -10 -32 23 -21 230 -20 255 1 25 20 21 31 -12
31 -38 0 -41 11 -41 131 l0 99 90 0 91 0 -3 -112 -3 -113 -27 -3 c-32 -4 -37
-27 -10 -40 21 -11 232 -10 250 1 23 15 13 36 -20 39 l-33 3 -3 117 c-2 108
-1 118 19 136 l21 20 -21 11 c-19 11 -21 20 -21 116 0 93 2 105 19 115 11 5
27 7 35 4 19 -7 22 19 4 34 -17 13 -239 13 -255 0 -18 -15 -16 -39 2 -32 35
14 45 -14 45 -127 l0 -109 -90 0 -90 0 0 110 c0 99 2 110 20 120 11 6 25 8 30
5 16 -10 21 13 5 28 -11 11 -41 15 -128 15 -62 0 -121 -4 -130 -10z m452 -283
c-7 -247 -29 -261 -29 -18 0 184 11 243 22 113 4 -47 7 -89 7 -95z m-331 -15
c0 -80 -4 -156 -8 -170 -6 -17 -8 0 -9 55 -1 47 -7 91 -15 107 -9 18 -11 29
-4 36 6 6 13 43 16 84 8 118 21 51 20 -112z"/>
<path d="M489 1013 c-13 -16 -12 -17 4 -4 9 7 17 15 17 17 0 8 -8 3 -21 -13z"/>
<path d="M1865 968 c-11 -7 -36 -11 -56 -9 -29 2 -41 -3 -58 -25 -28 -36 -27
-44 8 -44 32 0 41 -14 41 -66 0 -23 -8 -43 -23 -58 l-23 -23 23 -17 c20 -14
23 -26 23 -81 0 -79 -6 -95 -36 -95 -17 0 -24 -6 -24 -20 0 -11 3 -21 8 -22
34 -7 220 -3 230 5 20 16 14 37 -12 37 -30 0 -36 16 -36 91 0 50 4 64 24 84
l24 24 -24 16 c-22 14 -24 21 -24 105 0 78 -2 91 -19 100 -24 12 -21 12 -46
-2z m-6 -223 c0 -101 -14 -143 -21 -65 -3 30 -11 56 -17 58 -7 2 -6 10 4 25 8
12 15 40 16 62 0 31 2 36 9 20 5 -11 9 -56 9 -100z"/>
<path d="M456 708 c21 -24 47 -49 58 -57 12 -8 -4 11 -34 43 -64 66 -79 74
-24 14z"/>
<path d="M1100 130 c0 -63 16 -84 22 -27 2 24 8 32 23 32 15 0 22 -9 26 -35
l6 -35 2 42 c1 33 -3 43 -19 48 -11 3 -24 3 -30 0 -5 -3 -10 3 -10 14 0 12 -4
21 -10 21 -6 0 -10 -27 -10 -60z"/>
<path d="M1440 130 c0 -33 4 -60 10 -60 6 0 10 27 10 60 0 33 -4 60 -10 60 -6
0 -10 -27 -10 -60z"/>
<path d="M1583 130 c0 -48 1 -56 6 -30 4 26 12 36 28 38 17 3 24 -3 29 -25 10
-47 12 -49 13 -12 1 42 -19 64 -48 54 -15 -4 -21 -1 -24 17 -2 13 -4 -6 -4
-42z"/>
<path d="M1498 169 c-2 -7 -1 -30 2 -53 4 -35 9 -41 30 -43 14 -1 18 0 8 3
-13 4 -18 16 -18 40 0 19 5 34 11 34 6 0 4 7 -5 15 -18 18 -23 19 -28 4z"/>
<path d="M2403 165 c-6 -7 -8 -16 -3 -21 5 -5 10 -22 12 -39 2 -21 9 -31 23
-33 18 -2 18 -2 3 8 -10 6 -18 22 -18 35 0 13 8 29 18 34 15 9 15 10 0 11 -9
0 -18 4 -20 9 -1 5 -8 3 -15 -4z"/>
<path d="M1238 149 c-21 -12 -24 -49 -6 -67 15 -15 55 -16 63 -2 4 7 -2 9 -17
5 -16 -4 -29 -1 -37 9 -12 14 -9 16 23 16 37 0 47 15 24 38 -14 14 -27 15 -50
1z m47 -19 c4 -6 -7 -10 -25 -10 -18 0 -29 4 -25 10 3 6 15 10 25 10 10 0 22
-4 25 -10z"/>
<path d="M1340 150 c-12 -8 -9 -10 12 -10 36 0 45 -18 11 -22 -20 -2 -28 -9
-28 -23 0 -15 8 -21 33 -23 31 -3 32 -2 32 36 0 48 -25 65 -60 42z m50 -49 c0
-6 -5 -13 -10 -16 -15 -9 -43 3 -35 15 8 13 45 13 45 1z"/>
<path d="M1762 148 c-30 -30 -1 -85 39 -75 13 3 19 1 16 -6 -2 -7 -18 -12 -35
-12 -18 0 -32 -3 -32 -7 0 -5 16 -8 35 -8 41 0 55 20 55 78 0 37 -1 39 -33 40
-19 1 -39 -4 -45 -10z m53 -33 c0 -22 -31 -33 -47 -17 -17 17 -1 44 24 40 15
-2 23 -10 23 -23z"/>
<path d="M1888 149 c-21 -12 -24 -49 -6 -67 14 -14 54 -16 63 -3 3 6 -7 9 -21
8 -15 -1 -29 4 -31 11 -3 8 7 12 32 12 37 0 37 1 23 23 -18 26 -36 31 -60 16z
m47 -19 c4 -6 -5 -10 -19 -10 -14 0 -26 5 -26 10 0 6 9 10 19 10 11 0 23 -4
26 -10z"/>
<path d="M1991 110 c1 -46 3 -46 13 3 5 22 12 28 29 25 16 -2 24 -12 28 -38
l6 -35 2 36 c1 42 -13 58 -51 56 -26 -2 -28 -5 -27 -47z"/>
<path d="M2115 140 c-27 -30 -7 -70 35 -70 16 0 30 4 30 8 0 4 -12 8 -27 7
-14 0 -28 6 -30 13 -3 8 7 12 31 12 40 0 50 22 17 40 -27 14 -35 13 -56 -10z
m55 -10 c0 -5 -12 -10 -26 -10 -14 0 -23 4 -19 10 3 6 15 10 26 10 10 0 19 -4
19 -10z"/>
<path d="M2220 114 c0 -24 5 -44 10 -44 6 0 10 14 10 30 0 18 6 33 15 36 23 9
18 22 -10 22 -23 0 -25 -4 -25 -44z"/>
<path d="M2305 150 c-4 -6 5 -10 19 -10 36 0 32 -16 -5 -24 -45 -9 -36 -40 14
-44 36 -3 37 -2 37 30 0 19 -5 39 -12 46 -15 15 -45 16 -53 2z m45 -50 c0 -12
-28 -25 -36 -17 -9 9 6 27 22 27 8 0 14 -5 14 -10z"/>
<path d="M2493 115 c0 -27 2 -38 4 -22 2 15 2 37 0 50 -2 12 -4 0 -4 -28z"/>
<path d="M2546 144 c-30 -30 -13 -74 29 -74 44 0 63 60 26 80 -27 14 -37 13
-55 -6z m58 -20 c7 -19 -10 -44 -31 -44 -17 0 -27 24 -19 45 7 20 42 19 50 -1z"/>
<path d="M2661 110 c2 -44 2 -44 8 -10 4 26 12 36 29 38 19 3 22 -1 22 -32 0
-20 5 -36 10 -36 13 0 13 50 0 70 -5 8 -23 15 -40 15 -29 1 -30 0 -29 -45z"/>
</g>
</svg>
